<svg width="25" height="25" viewBox="0 0 25 25" fill="none" xmlns="http://www.w3.org/2000/svg">
<path fill-rule="evenodd" clip-rule="evenodd" d="M21.0443 5.55123L20.938 5.42895L21.4509 5.08039L21.5324 4.98407C21.7621 4.65396 21.7255 4.22355 21.4509 3.94898C21.1385 3.63656 20.632 3.63656 20.3195 3.94898L19.788 4.27595L19.6485 4.15458C19.0511 3.65546 18.3999 3.21863 17.7051 2.85447L17.523 2.76295L17.7326 2.22768L17.7691 2.11995C17.8661 1.72586 17.671 1.33245 17.3088 1.17868C16.9021 1.00604 16.4324 1.19579 16.2598 1.6025L16.039 2.14995L15.8842 2.0986C15.1514 1.86967 14.3857 1.71541 13.5963 1.6452L13.393 1.63095L13.4 0.999998L13.3914 0.886542C13.3268 0.485868 12.9935 0.199951 12.6 0.199951C12.1581 0.199951 11.8 0.558123 11.8 0.999951V1.62995L11.6021 1.6446C10.8104 1.71579 10.043 1.87087 9.30966 2.10089L9.12895 2.15995L8.95354 1.61207L8.90317 1.51009C8.6931 1.16283 8.27699 1.02257 7.9121 1.17C7.50245 1.33551 7.30453 1.80177 7.47004 2.21143L7.65795 2.77095L7.48898 2.8569C6.79598 3.22119 6.14666 3.6573 5.55123 4.15559L5.41595 4.27195L4.98039 3.84902L4.88407 3.7675C4.55396 3.53782 4.12355 3.57442 3.84898 3.84898C3.53656 4.1614 3.53656 4.66794 3.84898 4.98036L4.28395 5.40195L4.15458 5.55144C3.65546 6.14883 3.21863 6.79997 2.85447 7.49481L2.76495 7.67095L2.22768 7.46733L2.11995 7.43084C1.72586 7.33382 1.33245 7.52888 1.17868 7.89114C1.00604 8.29785 1.19579 8.76749 1.6025 8.94013L2.15295 9.14995L2.09864 9.31559C1.85083 10.1088 1.6905 10.9406 1.62952 11.8H0.999998L0.886542 11.8085C0.485868 11.8731 0.199951 12.2064 0.199951 12.6C0.199951 13.0418 0.558123 13.4 0.999951 13.4L1.62995 13.399L1.64442 13.5958C1.7153 14.3856 1.86964 15.1512 2.09851 15.8829L2.15395 16.05L1.60255 16.2597L1.50143 16.3119C1.15788 16.528 1.02491 16.9465 1.17868 17.3088C1.35132 17.7155 1.82096 17.9052 2.22767 17.7326L2.76495 17.528L2.85376 17.7049C3.21853 18.3999 3.65551 19.051 4.15498 19.6479L4.27795 19.789L3.84902 20.2195L3.7675 20.3158C3.53782 20.6459 3.57442 21.0764 3.84898 21.3509C4.1614 21.6633 4.66794 21.6633 4.98036 21.3509L5.40795 20.921L5.55144 21.0453C6.14883 21.5444 6.79997 21.9813 7.49481 22.3454L7.67795 22.437L7.46733 22.9722L7.43084 23.0799C7.33382 23.474 7.52888 23.8675 7.89114 24.0212C8.29785 24.1939 8.76749 24.0041 8.94013 23.5974L9.15695 23.048L9.31559 23.1013C10.0482 23.3301 10.8137 23.4845 11.6034 23.5552L11.8 23.569V24.1999L11.8085 24.3134C11.8731 24.714 12.2064 25 12.6 25C13.0418 25 13.4 24.6418 13.4 24.2L13.399 23.569L13.5969 23.5554C14.3889 23.4842 15.1565 23.3291 15.8901 23.0991L16.065 23.04L16.2464 23.5878L16.2967 23.6898C16.5068 24.0371 16.9229 24.1773 17.2878 24.0299C17.6975 23.8644 17.8954 23.3981 17.7299 22.9885L17.537 22.43L17.7109 22.343C18.4039 21.9787 19.0532 21.5426 19.6487 21.0443L19.783 20.927L20.2195 21.3509L20.3158 21.4324C20.6459 21.6621 21.0764 21.6255 21.3509 21.3509C21.6633 21.0385 21.6633 20.532 21.3509 20.2195L20.915 19.798L21.0453 19.6485C21.5444 19.0511 21.9813 18.3999 22.3454 17.7051L22.429 17.537L22.9722 17.7326L23.0799 17.7691C23.474 17.8661 23.8675 17.671 24.0212 17.3088C24.1939 16.9021 24.0041 16.4324 23.5974 16.2598L23.044 16.054L23.0477 16.0512C23.3062 15.268 23.4792 14.4459 23.5553 13.5963L23.569 13.399L24.1999 13.4L24.3134 13.3914C24.714 13.3268 25 12.9935 25 12.6C25 12.1581 24.6418 11.8 24.2 11.8L23.569 11.799L23.5553 11.6021C23.4841 10.8104 23.329 10.043 23.099 9.30966L23.048 9.15595L23.5878 8.95354L23.6898 8.90317C24.0371 8.6931 24.1773 8.27699 24.0299 7.9121C23.8644 7.50245 23.3981 7.30453 22.9885 7.47004L22.431 7.66295L22.343 7.48898C21.9787 6.79598 21.5426 6.14666 21.0443 5.55123ZM12.6 2.79995C11.0289 2.79995 9.54416 3.16964 8.22803 3.82678L10.3852 7.56409C11.0628 7.26564 11.812 7.09995 12.6 7.09995C15.4345 7.09995 17.7682 9.24417 18.0675 11.9991H22.3818C22.0714 6.86656 17.8106 2.79995 12.6 2.79995ZM7.18901 4.42789C4.54385 6.18283 2.79995 9.18774 2.79995 12.6C2.79995 16.0122 4.54385 19.0171 7.18901 20.772L9.34711 17.0354C7.98443 16.0343 7.09995 14.4204 7.09995 12.6C7.09995 10.7795 7.98443 9.16556 9.34711 8.16452L7.18901 4.42789ZM22.3819 13.1998H18.0676C17.7687 15.9552 15.4348 18.1 12.6 18.1C11.812 18.1 11.0628 17.9343 10.3852 17.6358L8.22803 21.3731C9.54416 22.0303 11.0289 22.4 12.6 22.4C17.8109 22.4 22.072 18.3328 22.3819 13.1998ZM8.29995 12.6C8.29995 10.2251 10.2251 8.29995 12.6 8.29995C14.9748 8.29995 16.9 10.2251 16.9 12.6C16.9 14.9748 14.9748 16.9 12.6 16.9C10.2251 16.9 8.29995 14.9748 8.29995 12.6Z" fill="#545458" fill-opacity="0.65"/>
</svg>
