<svg width="26" height="26" viewBox="0 0 26 26" fill="none" xmlns="http://www.w3.org/2000/svg">
<path fill-rule="evenodd" clip-rule="evenodd" d="M22.2682 4.45036C19.9125 2.03647 16.6908 0.649902 13.2488 0.649902C9.8081 0.649902 6.58632 2.03647 4.23062 4.45036C3.99918 4.68751 4.00381 5.06738 4.24097 5.29882C4.47812 5.53026 4.85799 5.52563 5.08943 5.28847C7.22156 3.10367 10.1348 1.8499 13.2488 1.8499L13.5952 1.85505C16.5788 1.94405 19.3563 3.18459 21.4094 5.28847C21.6409 5.52563 22.0207 5.53026 22.2579 5.29882C22.495 5.06738 22.4997 4.68751 22.2682 4.45036ZM22.25 13.2499C22.25 8.27934 18.2206 4.2499 13.25 4.2499C8.27946 4.2499 4.25002 8.27934 4.25002 13.2499C4.25002 18.2205 8.27946 22.2499 13.25 22.2499C18.2206 22.2499 22.25 18.2205 22.25 13.2499ZM1.13355 9.78163C1.22459 9.46301 1.55668 9.27852 1.8753 9.36956C2.19392 9.4606 2.37841 9.79269 2.28737 10.1113C1.99828 11.1231 1.85002 12.1763 1.85002 13.2499C1.85002 18.4611 5.37664 22.9713 10.3448 24.2765C10.6653 24.3607 10.8569 24.6888 10.7727 25.0093C10.6884 25.3298 10.3604 25.5214 10.0399 25.4372C4.54747 23.9942 0.650024 19.0097 0.650024 13.2499C0.650024 12.0645 0.8139 10.9003 1.13355 9.78163ZM24.6393 9.41248C24.9583 9.32266 25.2896 9.50841 25.3795 9.82737C25.6906 10.9321 25.85 12.0807 25.85 13.2499C25.85 19.0507 21.8974 24.0612 16.3515 25.4652C16.0302 25.5465 15.7039 25.352 15.6226 25.0308C15.5412 24.7096 15.7357 24.3832 16.057 24.3019C21.0734 23.0319 24.65 18.4982 24.65 13.2499C24.65 12.1909 24.5058 11.1518 24.2244 10.1527C24.1346 9.8337 24.3203 9.50231 24.6393 9.41248ZM13.25 5.4499C8.9422 5.4499 5.45002 8.94208 5.45002 13.2499C5.45002 17.5577 8.9422 21.0499 13.25 21.0499C17.5578 21.0499 21.05 17.5577 21.05 13.2499C21.05 8.94208 17.5578 5.4499 13.25 5.4499Z" fill="#979797"/>
</svg>
