<svg width="24" height="24" viewBox="0 0 24 24" fill="none" xmlns="http://www.w3.org/2000/svg">
<path fill-rule="evenodd" clip-rule="evenodd" d="M22.38 21.7505C22.6059 21.5439 22.8 21.305 22.9558 21.0415C23.8277 19.568 23.3399 17.6667 21.8664 16.7949L18.5578 14.8373L18.3933 14.7478C17.6143 14.3595 16.6873 14.3855 15.9276 14.8269L14.8967 15.4259L14.7769 15.4881C14.2495 15.7303 13.6204 15.6224 13.2034 15.2054L9.12436 11.1264L9.03363 11.0266C8.66444 10.5788 8.60754 9.943 8.90382 9.4331L9.50285 8.40215C9.9758 7.58819 9.97183 6.58215 9.49246 5.77195L7.53484 2.46333C6.66302 0.989839 4.76177 0.50209 3.28828 1.37391C3.02481 1.52981 2.78588 1.72386 2.57927 1.94977C1.10884 3.55758 0.45062 5.08841 0.667058 6.53998C1.11061 9.51476 3.20203 12.9126 6.91774 16.7701L7.24043 17.0889L7.55966 17.412L7.56595 17.4074C11.4172 21.1277 14.815 23.2191 17.7898 23.6627C19.2414 23.8791 20.7722 23.2209 22.38 21.7505ZM21.5701 20.865C20.1895 22.1276 18.9952 22.6292 17.9667 22.4758C15.3822 22.0905 12.3066 20.2445 8.7563 16.8853L8.17127 16.3237L7.7611 15.9164C4.2076 12.2268 2.25187 9.03183 1.85394 6.36301C1.70059 5.33457 2.20213 4.14025 3.46478 2.75963C3.59141 2.62117 3.73786 2.50223 3.89934 2.40668C4.80245 1.87234 5.96773 2.17128 6.50207 3.07439L8.45969 6.38301C8.71781 6.81927 8.71995 7.36099 8.46529 7.79927L7.86625 8.83022C7.31893 9.77217 7.41785 10.9532 8.10776 11.7899L8.2362 11.9334L12.3548 16.0539C13.1252 16.8243 14.2921 17.0312 15.2777 16.5786L15.4492 16.4912L16.5305 15.8645C16.9382 15.6276 17.4374 15.6121 17.858 15.8218L17.9842 15.8913L21.2554 17.8277C22.1585 18.362 22.4574 19.5273 21.9231 20.4304C21.8275 20.5919 21.7086 20.7383 21.5701 20.865Z" fill="#545458" fill-opacity="0.65"/>
</svg>
